# xmcd
#
# Track frame offsets: 
#        150
#        17365
#        34100
#        53288
#        86406
#        108494
#        122699
#        139762
#        154462
#        182275
#        201675
#        226675
#        248403
#        260153
#        275991
#
# Disc length: 3892 seconds
#
# Revision: 0
# Processed by: cddbd v1.4PL0 Copyright (c) Steve Scherf et al.
# Submitted via: ExactAudioCopy v0.95a4
#
DISCID=c60f320f
DTITLE=The Curbfeelers - Bellflower Mood
DYEAR=1994
DGENRE=Blues
TTITLE0=Trainfare Blues
TTITLE1=Knucklehead
TTITLE2=Down The Road I Go
TTITLE3=Honey Bee
TTITLE4=Cold Ground
TTITLE5=Elmore's Contribution to Jazz
TTITLE6=On My Knees
TTITLE7=Dingleballs
TTITLE8=Bellflower Mood
TTITLE9=Black Beans
TTITLE10=Stranger Blues
TTITLE11=No Place to Go
TTITLE12=All Night Long
TTITLE13=Commit a Crime
TTITLE14=Curbfeeler
EXTD=
EXTT0=
EXTT1=
EXTT2=
EXTT3=
EXTT4=
EXTT5=
EXTT6=
EXTT7=
EXTT8=
EXTT9=
EXTT10=
EXTT11=
EXTT12=
EXTT13=
EXTT14=
PLAYORDER=
